<svg xmlns="http://www.w3.org/2000/svg" height="48" width="48"><path d="M-.5 36.5v-3.15q0-2.15 2.175-3.5T7.5 28.5h.7q.35 0 .65.05-.45 1-.725 2-.275 1-.275 2.2v3.75Zm12 0v-3.75q0-1.8.9-3.2.9-1.4 2.55-2.45 1.7-1 4-1.55T24 25q2.75 0 5.05.55t4 1.55q1.65 1.05 2.55 2.45.9 1.4.9 3.2v3.75Zm28.65 0v-3.8q0-1.15-.25-2.2-.25-1.05-.65-1.95.3-.05.625-.05h.625q3.7 0 5.85 1.325 2.15 1.325 2.15 3.525v3.15ZM7.5 27.1q-1.55 0-2.675-1.125Q3.7 24.85 3.7 23.3q0-1.6 1.125-2.7T7.5 19.5q1.55 0 2.7 1.1 1.15 1.1 1.15 2.7 0 1.55-1.125 2.675Q9.1 27.1 7.5 27.1Zm33 0q-1.55 0-2.675-1.125Q36.7 24.85 36.7 23.3q0-1.6 1.125-2.7t2.675-1.1q1.55 0 2.7 1.1 1.15 1.1 1.15 2.7 0 1.55-1.125 2.675Q42.1 27.1 40.5 27.1Zm-16.45-3.6q-2.65 0-4.6-1.925Q17.5 19.65 17.5 17q0-2.75 1.95-4.625t4.6-1.875q2.75 0 4.6 1.875Q30.5 14.25 30.5 17q0 2.65-1.85 4.575-1.85 1.925-4.6 1.925Z"/></svg>